<svg xmlns="http://www.w3.org/2000/svg" viewBox="0 0 500 500" xml:space="preserve"><defs><linearGradient id="a" x1="0%" y1="0%" x2="100%" y2="0%"><stop offset="0%" style="stop-color:red"/><stop offset="100%" style="stop-color:orange"/></linearGradient></defs><rect width="512" height="512" rx="50" ry="50" fill="url(#a)"/><path fill="#FFFEFD" d="M348.149 434.313c-9.617 1.084-18.926 1.991-28.697 2.987-11.153.032-21.843-.025-32.996.006-11.154.029-21.847-.031-33.001-.002-13.488.03-26.514-.03-40.001 0-14.483-.009-28.506-.11-42.994-.155-14.473-1.595-27.58-5.927-40.075-13.19-7.695-6.637-15.045-13.2-22.652-19.95-8.238-11.046-15.015-22.451-18.141-35.812-2.312-9.876-2.279-19.84-2.294-29.844-.008-5.164.083-10.329-.02-15.49-.156-7.799 1.735-14.75 8.995-18.747 7.213-3.971 14.354-2.98 21.314 1.977 4.705 5.202 5.965 11.149 5.814 17.704-.186 8.131-.284 16.292.181 24.405 1.319 23.022 12.79 39.215 34.056 48.816 8.56 4.526 17.516 4.206 27.362 4.095 7.947-.055 14.973-.114 22.46-.084 10.154.03 19.846-.029 30 0 11.487.03 22.512-.03 34-.003 10.154.03 19.846-.028 30 .001 7.82.03 15.18-.03 22.539-.087 8.403.817 16.061-1.882 23.903-5.224 17.36-8.51 27.23-22.196 30.598-41.166.258-11.362.507-22.31.753-33.257.214-9.556 4.216-15.796 12.17-18.645 1.847-.662 3.877-.81 6.2-1.298 13.11 2.783 17.158 7.801 17.044 21.06-.11 12.798.306 25.663-.861 38.375-1.293 14.09-6.935 26.951-15.462 38.29-3.983 5.296-8.744 10.005-13.314 15.257-11.045 9.123-22.906 16.148-36.881 19.981z"/><path fill="#FFFEFE" d="M294.865 251.306c5.113-5.174 9.99-10.153 15.112-14.865 2.66-2.448 5.755-4.423 8.907-6.819 13.733-4.328 25.914 7.314 23.937 18.94-.672 3.946-2.865 8.049-5.466 11.16-4.652 5.564-10.14 10.43-15.718 16.038-7.538 7.637-14.638 14.824-22.04 22.163-9.77 9.697-19.236 19.243-29.006 28.945a85.864 85.864 0 0 0-3.835 3.634c-9.018 9.011-16.81 9.637-27.363 1.893-10.27-10.295-20.344-20.306-30.559-30.624-7.712-7.772-15.284-15.238-22.856-22.705-6.744-6.631-13.852-12.938-20.133-19.983-6.591-7.392-6.014-17.586.429-24.5 5.42-5.814 16.077-9.137 24.16-1.776 1.09.994 2.354 1.799 3.84 2.885 13.383 12.944 26.464 25.694 39.988 38.875v-5.621c0-60.946.038-121.892-.047-182.838-.011-7.616 1.82-14.138 8.525-18.993 13.047-4.955 23.735-.714 26.731 10.538.798 2.996.813 6.26.815 9.4.045 60.453.034 120.905.034 181.358v7.434c8.8-8.737 16.606-16.485 24.545-24.54z"/></svg>